<svg xmlns="http://www.w3.org/2000/svg" xmlns:xlink="http://www.w3.org/1999/xlink" width="24" height="24" viewBox="0 0 24 24">
    <defs>
        <path id="4cx00kx46a" d="M16.5 0c2.414 0 4.384 1.901 4.495 4.288L21 4.5v1c0 .66-.142 1.287-.397 1.851l1.964 1.179c.834.5 1.364 1.375 1.427 2.337l.006.193V16c0 .513-.386.936-.883.993L23 17h-3.543c.313.512.5 1.099.537 1.713l.006.216V23c0 .513-.386.936-.883.993L19 24H1c-.513 0-.936-.386-.993-.883L0 23v-4.071c0-1.228.609-2.37 1.615-3.057l.182-.116 3.465-2.075C4.472 12.665 4 11.387 4 10V8c0-3.216 2.537-5.858 5.762-5.995L10 2c.875 0 1.706.187 2.456.524C13.199.998 14.756 0 16.5 0zm-3.314 15.082c-.858.538-1.864.867-2.948.913L10 16c-1.171 0-2.265-.336-3.188-.916l-3.987 2.388c-.469.28-.771.77-.819 1.309L2 18.929v3.07h16v-3.07c0-.547-.263-1.058-.701-1.375l-.124-.082zM16.5 10c-.17 0-.336-.01-.5-.027V10c0 1.385-.47 2.662-1.263 3.68L16.941 15h5.058L22 11.06c0-.292-.134-.565-.36-.744l-.101-.07-2.154-1.293C18.605 9.607 17.598 10 16.5 10zM10 4l-.174.004C7.692 4.094 6 5.856 6 8v2c0 1.253.576 2.372 1.475 3.105.014.009.027.02.04.03.678.542 1.535.865 2.464.865l.195-.004C12.308 13.906 14 12.144 14 10V8.675 8c0-2.209-1.791-4-4-4zm6.5-2c-1.034 0-1.947.629-2.323 1.57l-.04.085C15.285 4.748 16 6.29 16 8l-.001-.05c.16.033.327.05.501.05 1.325 0 2.41-1.032 2.495-2.336L19 5.5v-1C19 3.12 17.88 2 16.5 2z"/>
    </defs>
    <g fill="none" fill-rule="evenodd">
        <g>
            <g>
                <g>
                    <g>
                        <g>
                            <g transform="translate(-332 -840) translate(-44 748) translate(65) translate(26 20) translate(64 62) translate(221 10)">
                                <mask id="9oo3vzta7b" fill="#fff">
                                    <use xlink:href="#4cx00kx46a"/>
                                </mask>
                                <use fill="#000" fill-rule="nonzero" xlink:href="#4cx00kx46a"/>
                                <g fill="#192B37" mask="url(#9oo3vzta7b)">
                                    <path d="M0 0H24V24H0z"/>
                                </g>
                            </g>
                        </g>
                    </g>
                </g>
            </g>
        </g>
    </g>
</svg>
